<svg width="20" height="20" viewBox="0 0 20 20" fill="none" xmlns="http://www.w3.org/2000/svg">
<g clip-path="url(#clip0_12_6344)">
<path fill-rule="evenodd" clip-rule="evenodd" d="M1 5.21956H29V-0.11377H1V5.21956Z" fill="#DD172C"/>
<path fill-rule="evenodd" clip-rule="evenodd" d="M1 19.8861H29V14.5527H1V19.8861Z" fill="#DD172C"/>
<path fill-rule="evenodd" clip-rule="evenodd" d="M1 14.5531H29V5.21973H1V14.5531Z" fill="#FFD133"/>
<path fill-rule="evenodd" clip-rule="evenodd" d="M8.33203 9.21956H9.66536V9.88623H8.33203V9.21956Z" fill="#FFEDB1"/>
<path d="M7.06032 9.24708C7.04412 9.05274 7.19749 8.88607 7.3925 8.88607H9.27677C9.47178 8.88607 9.62515 9.05274 9.60895 9.24708L9.43767 11.3024C9.39448 11.8207 8.96121 12.2194 8.44112 12.2194H8.22815C7.70806 12.2194 7.27479 11.8207 7.2316 11.3024L7.06032 9.24708Z" stroke="#A41517" stroke-width="0.666667"/>
<path fill-rule="evenodd" clip-rule="evenodd" d="M7 9.88623H9.66667V10.5529H9L8.33333 11.8862L7.66667 10.5529H7V9.88623Z" fill="#A41517"/>
<rect x="5" y="7.88623" width="1.33333" height="4.66667" rx="0.666667" fill="#A41517"/>
<rect x="10.332" y="7.88623" width="1.33333" height="4.66667" rx="0.666667" fill="#A41517"/>
<path d="M7 7.6194C7 7.0303 7.47756 6.55273 8.06667 6.55273H8.6C9.1891 6.55273 9.66667 7.0303 9.66667 7.6194C9.66667 7.76668 9.54728 7.88607 9.4 7.88607H7.26667C7.11939 7.88607 7 7.76668 7 7.6194Z" fill="#A41517"/>
</g>
<rect x="0.75" y="0.63623" width="18.5" height="18.5" rx="9.25" stroke="#F3F3F3" stroke-width="0.5"/>
<defs>
<clipPath id="clip0_12_6344">
<rect x="1" y="0.88623" width="18" height="18" rx="9" fill="white"/>
</clipPath>
</defs>
</svg>
