<svg width="12" height="12" viewBox="0 0 12 12" fill="none" xmlns="http://www.w3.org/2000/svg">
<g clip-path="url(#clip0_1_4688)">
<path d="M6 12C5.17 12 4.39 11.8424 3.66 11.5272C2.93 11.2124 2.295 10.785 1.755 10.245C1.215 9.705 0.7876 9.07 0.4728 8.34C0.1576 7.61 0 6.83 0 6C0 5.17 0.1576 4.39 0.4728 3.66C0.7876 2.93 1.215 2.295 1.755 1.755C2.295 1.215 2.93 0.7874 3.66 0.4722C4.39 0.1574 5.17 0 6 0C6.83 0 7.61 0.1574 8.34 0.4722C9.07 0.7874 9.705 1.215 10.245 1.755C10.785 2.295 11.2124 2.93 11.5272 3.66C11.8424 4.39 12 5.17 12 6C12 6.83 11.8424 7.61 11.5272 8.34C11.2124 9.07 10.785 9.705 10.245 10.245C9.705 10.785 9.07 11.2124 8.34 11.5272C7.61 11.8424 6.83 12 6 12ZM5.4 10.77V9.6C5.07 9.6 4.7876 9.4826 4.5528 9.2478C4.3176 9.0126 4.2 8.73 4.2 8.4V7.8L1.32 4.92C1.29 5.1 1.2624 5.28 1.2372 5.46C1.2124 5.64 1.2 5.82 1.2 6C1.2 7.21 1.5976 8.27 2.3928 9.18C3.1876 10.09 4.19 10.62 5.4 10.77ZM9.54 9.24C9.74 9.02 9.92 8.7824 10.08 8.5272C10.24 8.2724 10.3726 8.0074 10.4778 7.7322C10.5826 7.4574 10.6626 7.175 10.7178 6.885C10.7726 6.595 10.8 6.3 10.8 6C10.8 5.02 10.5276 4.125 9.9828 3.315C9.4376 2.505 8.71 1.92 7.8 1.56V1.8C7.8 2.13 7.6826 2.4124 7.4478 2.6472C7.2126 2.8824 6.93 3 6.6 3H5.4V4.2C5.4 4.37 5.3426 4.5124 5.2278 4.6272C5.1126 4.7424 4.97 4.8 4.8 4.8H3.6V6H7.2C7.37 6 7.5126 6.0574 7.6278 6.1722C7.7426 6.2874 7.8 6.43 7.8 6.6V8.4H8.4C8.66 8.4 8.895 8.4774 9.105 8.6322C9.315 8.7874 9.46 8.99 9.54 9.24Z" fill="#16103E"/>
</g>
<defs>
<clipPath id="clip0_1_4688">
<rect width="12" height="12" fill="white"/>
</clipPath>
</defs>
</svg>
