<svg width="12" height="12" viewBox="0 0 12 12" fill="none" xmlns="http://www.w3.org/2000/svg">
<path d="M5 8.66667H7.66667C8.03486 8.66667 8.33333 8.96514 8.33333 9.33333C8.33333 9.67522 8.07597 9.95701 7.74441 9.99552L7.66667 10H5C4.63181 10 4.33333 9.70152 4.33333 9.33333C4.33333 8.99144 4.59069 8.70966 4.92225 8.67115L5 8.66667H7.66667H5ZM3.66667 5.33333H9C9.36819 5.33333 9.66667 5.63181 9.66667 6C9.66667 6.34189 9.40931 6.62367 9.07775 6.66218L9 6.66667H3.66667C3.29848 6.66667 3 6.36819 3 6C3 5.65811 3.25736 5.37633 3.58892 5.33782L3.66667 5.33333H9H3.66667ZM1.66667 2H11C11.3682 2 11.6667 2.29848 11.6667 2.66667C11.6667 3.00856 11.4093 3.29034 11.0777 3.32885L11 3.33333H1.66667C1.29848 3.33333 1 3.03486 1 2.66667C1 2.32478 1.25736 2.043 1.58892 2.00449L1.66667 2H11H1.66667Z" fill="#16103E"/>
</svg>
