<svg width="28" height="20" viewBox="0 0 28 20" fill="none" xmlns="http://www.w3.org/2000/svg">
<rect x="0.25" y="0.25" width="27.5" height="19.5" rx="1.75" fill="white" stroke="#F5F5F5" stroke-width="0.5"/>
<mask id="mask0_12_5376" style="mask-type:luminance" maskUnits="userSpaceOnUse" x="0" y="0" width="28" height="20">
<rect x="0.25" y="0.25" width="27.5" height="19.5" rx="1.75" fill="white" stroke="white" stroke-width="0.5"/>
</mask>
<g mask="url(#mask0_12_5376)">
<path fill-rule="evenodd" clip-rule="evenodd" d="M16 21.3332H12V11.9998H-1.33203V7.99984H12V-1.3335H16V7.99984H29.3346V11.9998H16V21.3332Z" fill="#FF2B37"/>
<path fill-rule="evenodd" clip-rule="evenodd" d="M21.5987 4.40022L20 4.66667V3.33333L21.5987 3.59978L21.332 2H22.6654L22.3987 3.60022L24 3.33333V4.66667L22.3987 4.39978L22.6654 6H21.332L21.5987 4.40022Z" fill="#FD0D1B"/>
<path fill-rule="evenodd" clip-rule="evenodd" d="M5.59866 4.40022L4 4.66667V3.33333L5.59866 3.59978L5.33203 2H6.66536L6.39866 3.60022L8 3.33333V4.66667L6.39866 4.39978L6.66536 6H5.33203L5.59866 4.40022Z" fill="#FD0D1B"/>
<path fill-rule="evenodd" clip-rule="evenodd" d="M5.59866 16.4002L4 16.6667V15.3333L5.59866 15.5998L5.33203 14H6.66536L6.39866 15.6002L8 15.3333V16.6667L6.39866 16.3998L6.66536 18H5.33203L5.59866 16.4002Z" fill="#FD0D1B"/>
<path fill-rule="evenodd" clip-rule="evenodd" d="M21.5987 16.4002L20 16.6667V15.3333L21.5987 15.5998L21.332 14H22.6654L22.3987 15.6002L24 15.3333V16.6667L22.3987 16.3998L22.6654 18H21.332L21.5987 16.4002Z" fill="#FD0D1B"/>
</g>
</svg>
