<svg width="30" height="30" viewBox="0 0 30 30" fill="none" xmlns="http://www.w3.org/2000/svg">
<g opacity="0.5">
<path d="M15.0048 11.0946C12.8544 11.0946 11.0995 12.8495 11.0995 14.9999C11.0995 17.1503 12.8544 18.9052 15.0048 18.9052C17.1552 18.9052 18.91 17.1503 18.91 14.9999C18.91 12.8495 17.1552 11.0946 15.0048 11.0946ZM26.7177 14.9999C26.7177 13.3827 26.7323 11.7802 26.6415 10.1659C26.5507 8.29091 26.1229 6.62685 24.7518 5.25575C23.3778 3.88173 21.7167 3.45693 19.8417 3.36611C18.2245 3.27529 16.622 3.28993 15.0077 3.28993C13.3905 3.28993 11.788 3.27529 10.1737 3.36611C8.29872 3.45693 6.63466 3.88466 5.26357 5.25575C3.88954 6.62978 3.46474 8.29091 3.37392 10.1659C3.2831 11.7831 3.29775 13.3856 3.29775 14.9999C3.29775 16.6142 3.2831 18.2196 3.37392 19.8339C3.46474 21.7089 3.89247 23.3729 5.26357 24.744C6.63759 26.1181 8.29872 26.5429 10.1737 26.6337C11.7909 26.7245 13.3934 26.7099 15.0077 26.7099C16.6249 26.7099 18.2274 26.7245 19.8417 26.6337C21.7167 26.5429 23.3808 26.1151 24.7518 24.744C26.1259 23.37 26.5507 21.7089 26.6415 19.8339C26.7352 18.2196 26.7177 16.6171 26.7177 14.9999ZM15.0048 21.0087C11.6796 21.0087 8.99599 18.3251 8.99599 14.9999C8.99599 11.6747 11.6796 8.99111 15.0048 8.99111C18.33 8.99111 21.0136 11.6747 21.0136 14.9999C21.0136 18.3251 18.33 21.0087 15.0048 21.0087ZM21.2597 10.1483C20.4833 10.1483 19.8563 9.52138 19.8563 8.74501C19.8563 7.96865 20.4833 7.34169 21.2597 7.34169C22.036 7.34169 22.663 7.96865 22.663 8.74501C22.6632 8.92936 22.6271 9.11195 22.5566 9.28231C22.4862 9.45268 22.3828 9.60747 22.2525 9.73783C22.1221 9.86818 21.9673 9.97154 21.797 10.042C21.6266 10.1124 21.444 10.1486 21.2597 10.1483Z" fill="#16103E"/>
</g>
</svg>
