<svg width="20" height="20" viewBox="0 0 20 20" fill="none" xmlns="http://www.w3.org/2000/svg">
<g clip-path="url(#clip0_12_6383)">
<mask id="mask0_12_6383" style="mask-type:luminance" maskUnits="userSpaceOnUse" x="1" y="1" width="18" height="19">
<rect x="1.225" y="1.54336" width="17.55" height="17.55" rx="1.57499" fill="white" stroke="white" stroke-width="0.449997"/>
</mask>
<g mask="url(#mask0_12_6383)">
<path fill-rule="evenodd" clip-rule="evenodd" d="M10.0832 13.6938C11.9975 13.6938 13.5493 12.142 13.5493 10.2278C13.5493 8.31352 11.9975 6.76172 10.0832 6.76172C8.16899 6.76172 6.61719 8.31352 6.61719 10.2278C6.61719 12.142 8.16899 13.6938 10.0832 13.6938Z" fill="#E01B41"/>
<mask id="mask1_12_6383" style="mask-type:luminance" maskUnits="userSpaceOnUse" x="6" y="6" width="8" height="8">
<path fill-rule="evenodd" clip-rule="evenodd" d="M10.0832 13.6938C11.9975 13.6938 13.5493 12.142 13.5493 10.2278C13.5493 8.31352 11.9975 6.76172 10.0832 6.76172C8.16899 6.76172 6.61719 8.31352 6.61719 10.2278C6.61719 12.142 8.16899 13.6938 10.0832 13.6938Z" fill="white"/>
</mask>
<g mask="url(#mask1_12_6383)">
<path fill-rule="evenodd" clip-rule="evenodd" d="M6.61567 10.723C7.60597 11.6514 9.09142 12.2084 10.0817 10.723C11.072 9.23752 13.0526 9.23752 13.5478 10.723C14.0429 12.2084 13.5478 13.6939 13.5478 13.6939H6.61567C6.61567 13.6939 5.62537 9.79457 6.61567 10.723Z" fill="#0E4B9C"/>
</g>
<path opacity="0.75" fill-rule="evenodd" clip-rule="evenodd" d="M4.27084 5.44219C4.33921 5.32378 4.49062 5.2832 4.60904 5.35157L5.03785 5.59914C5.15626 5.66751 5.19683 5.81893 5.12847 5.93734L3.89059 8.0814C3.82223 8.19982 3.67081 8.24039 3.5524 8.17202L3.12358 7.92445C3.00517 7.85608 2.9646 7.70467 3.03297 7.58625L4.27084 5.44219ZM15.1286 5.5996C15.0102 5.66797 14.9696 5.81938 15.0379 5.93779L16.2758 8.08186C16.3442 8.20027 16.4956 8.24084 16.614 8.17248L17.0428 7.9249C17.1612 7.85654 17.2018 7.70512 17.1335 7.58671L15.8956 5.44264C15.8272 5.32423 15.6758 5.28366 15.5574 5.35202L15.1286 5.5996ZM13.8434 6.34228C13.725 6.41064 13.6844 6.56206 13.7528 6.68047L14.9907 8.82453C15.059 8.94295 15.2105 8.98352 15.3289 8.91515L15.7577 8.66758C15.8761 8.59921 15.9167 8.4478 15.8483 8.32938L14.6104 6.18532C14.5421 6.06691 14.3906 6.02633 14.2722 6.0947L13.8434 6.34228ZM3.03404 12.8699C2.96568 12.7515 3.00625 12.6001 3.12466 12.5317L3.55347 12.2842C3.67189 12.2158 3.8233 12.2564 3.89167 12.3748L5.12954 14.5188C5.19791 14.6372 5.15734 14.7887 5.03893 14.857L4.61011 15.1046C4.4917 15.173 4.34029 15.1324 4.27192 15.014L3.03404 12.8699ZM4.40982 11.7891C4.2914 11.8574 4.25083 12.0088 4.3192 12.1272L5.55708 14.2713C5.62544 14.3897 5.77686 14.4303 5.89527 14.3619L6.32408 14.1144C6.4425 14.046 6.48307 13.8946 6.4147 13.7762L5.17682 11.6321C5.10846 11.5137 4.95704 11.4731 4.83863 11.5415L4.40982 11.7891ZM14.9896 11.6321C15.058 11.5137 15.2094 11.4731 15.3278 11.5415L15.7566 11.7891C15.875 11.8575 15.9156 12.0089 15.8472 12.1273L14.6093 14.2713C14.541 14.3898 14.3896 14.4303 14.2711 14.362L13.8423 14.1144C13.7239 14.046 13.6834 13.8946 13.7517 13.7762L14.9896 11.6321ZM16.6168 12.2842C16.4984 12.2158 16.347 12.2564 16.2787 12.3748L15.0408 14.5189C14.9724 14.6373 15.013 14.7887 15.1314 14.8571L15.5602 15.1046C15.6786 15.173 15.83 15.1324 15.8984 15.014L17.1363 12.87C17.2046 12.7515 17.1641 12.6001 17.0457 12.5318L16.6168 12.2842ZM5.89419 6.09425C5.77578 6.02588 5.62436 6.06645 5.556 6.18486L4.31812 8.32893C4.24976 8.44734 4.29033 8.59876 4.40874 8.66712L4.83755 8.9147C4.95597 8.98306 5.10738 8.94249 5.17575 8.82408L6.41362 6.68001C6.48199 6.5616 6.44142 6.41019 6.32301 6.34182L5.89419 6.09425Z" fill="#262626"/>
</g>
</g>
<rect x="0.75" y="1.06836" width="18.5" height="18.5" rx="9.25" stroke="#F3F3F3" stroke-width="0.5"/>
<defs>
<clipPath id="clip0_12_6383">
<rect x="1" y="1.31836" width="18" height="18" rx="9" fill="white"/>
</clipPath>
</defs>
</svg>
