<svg width="20" height="21" viewBox="0 0 20 21" fill="none" xmlns="http://www.w3.org/2000/svg">
<path d="M3.3 19C2.8 19 2.375 18.825 2.025 18.475C1.675 18.125 1.5 17.7 1.5 17.2V3.8C1.5 3.3 1.675 2.875 2.025 2.525C2.375 2.175 2.8 2 3.3 2H8.875C9.075 2 9.25 2.07067 9.4 2.212C9.55 2.354 9.625 2.53333 9.625 2.75C9.625 2.96667 9.55 3.14567 9.4 3.287C9.25 3.429 9.075 3.5 8.875 3.5H3.3C3.23333 3.5 3.16667 3.53333 3.1 3.6C3.03333 3.66667 3 3.73333 3 3.8V17.2C3 17.2667 3.03333 17.3333 3.1 17.4C3.16667 17.4667 3.23333 17.5 3.3 17.5H16.7C16.7667 17.5 16.8333 17.4667 16.9 17.4C16.9667 17.3333 17 17.2667 17 17.2V11.625C17 11.425 17.0707 11.25 17.212 11.1C17.354 10.95 17.5333 10.875 17.75 10.875C17.9667 10.875 18.146 10.95 18.288 11.1C18.4293 11.25 18.5 11.425 18.5 11.625V17.2C18.5 17.7 18.325 18.125 17.975 18.475C17.625 18.825 17.2 19 16.7 19H3.3ZM7.2 13.3C7.05 13.1667 6.975 12.9957 6.975 12.787C6.975 12.579 7.05 12.4 7.2 12.25L15.95 3.5H12.75C12.5333 3.5 12.3543 3.429 12.213 3.287C12.071 3.14567 12 2.96667 12 2.75C12 2.53333 12.071 2.354 12.213 2.212C12.3543 2.07067 12.5333 2 12.75 2H17.6C17.85 2 18.0627 2.08733 18.238 2.262C18.4127 2.43733 18.5 2.65 18.5 2.9V7.75C18.5 7.96667 18.4293 8.14567 18.288 8.287C18.146 8.429 17.9667 8.5 17.75 8.5C17.5333 8.5 17.354 8.429 17.212 8.287C17.0707 8.14567 17 7.96667 17 7.75V4.55L8.225 13.325C8.09167 13.475 7.925 13.55 7.725 13.55C7.525 13.55 7.35 13.4667 7.2 13.3Z" fill="#16103E"/>
</svg>
