<svg width="170" height="30" viewBox="0 0 170 30" fill="none" xmlns="http://www.w3.org/2000/svg">
<g clip-path="url(#clip0_1_590)">
<path d="M33.4678 19.8069L36.5375 17.9907C37.256 19.8069 38.6275 20.7799 40.7176 20.7799C42.7423 20.7799 43.6567 20.0015 43.6567 18.8339C43.6567 18.1853 43.3954 17.6664 42.8076 17.342C42.2198 16.9529 41.2401 16.5637 39.7379 16.1745C38.105 15.6556 37.1253 15.2664 35.9497 14.488C34.8394 13.6447 34.2515 12.4123 34.2515 10.7258C34.2515 9.1042 34.8394 7.74204 36.015 6.83393C37.1906 5.86096 38.6275 5.34204 40.2604 5.34204C43.1995 5.34204 45.5508 6.83393 46.7917 9.42853L43.7873 11.1799C43.0688 9.62312 41.8932 8.84474 40.2604 8.84474C38.7582 8.84474 37.8438 9.62312 37.8438 10.661C37.8438 11.2447 38.105 11.6988 38.5622 12.088C39.0847 12.4123 39.9991 12.8015 41.3054 13.2556L42.5463 13.6447C42.8076 13.7096 43.1995 13.9042 43.722 14.0988C44.2445 14.2934 44.6364 14.488 44.8976 14.6177C45.4201 14.942 46.2692 15.5907 46.5958 16.2393C46.9876 16.888 47.2489 17.7961 47.2489 18.8339C47.2489 20.5204 46.5958 21.8177 45.4201 22.8556C44.1792 23.8285 42.6116 24.3474 40.6522 24.3474C37.06 24.2826 34.5128 22.5312 33.4678 19.8069Z" fill="#16103E"/>
<path d="M49.5352 23.8934V4.95288H52.9315V23.8934H49.5352Z" fill="#16103E"/>
<path d="M62.0093 24.2827C60.0499 24.2827 58.417 23.634 57.1108 22.3367C55.8045 21.0394 55.1514 19.3529 55.1514 17.4719C55.1514 15.5259 55.8045 13.9692 57.1108 12.607C58.417 11.2448 60.1152 10.5962 62.0093 10.5962C63.9034 10.5962 65.6015 11.2448 66.9078 12.607C68.214 13.9043 68.9325 15.5259 68.9325 17.4719C68.9325 19.4178 68.2794 21.0394 66.9078 22.3367C65.6015 23.634 63.9687 24.2827 62.0093 24.2827ZM62.0093 20.9746C63.0543 20.9746 63.838 20.6502 64.5565 19.9367C65.2096 19.2881 65.6015 18.38 65.6015 17.3421C65.6015 16.3043 65.2749 15.4611 64.5565 14.7475C63.9034 14.0989 63.0543 13.7097 62.0093 13.7097C60.9643 13.7097 60.1805 14.034 59.4621 14.7475C58.8089 15.3962 58.4824 16.3043 58.4824 17.3421C58.4824 18.38 58.8089 19.2232 59.4621 19.9367C60.1805 20.6502 61.0296 20.9746 62.0093 20.9746Z" fill="#16103E"/>
<path d="M78.5344 14.1638H75.5953V19.5475C75.5953 20.9746 76.6404 20.9746 78.5344 20.8448V23.8935C73.8972 24.4124 72.1991 23.1151 72.1991 19.5475V14.1638H69.9131V10.9205H72.1991V8.32592L75.5953 7.28809V10.9205H78.5344V14.1638Z" fill="#16103E"/>
<path d="M83.5631 18.7692C84.0202 20.3908 85.2612 21.234 87.2206 21.234C88.5269 21.234 89.5066 20.78 90.1597 19.9367L92.9029 21.4935C91.5966 23.3097 89.7025 24.2827 87.2206 24.2827C85.0653 24.2827 83.3018 23.634 81.9955 22.3367C80.6893 21.0394 80.0361 19.4178 80.0361 17.407C80.0361 15.4611 80.6893 13.8394 81.9955 12.5421C83.3018 11.2448 84.9346 10.5962 86.9593 10.5962C88.8534 10.5962 90.4863 11.2448 91.6619 12.5421C92.9029 13.8394 93.556 15.4611 93.556 17.407C93.556 17.8611 93.4907 18.3151 93.4254 18.7692H83.5631ZM90.225 16.1746C89.8331 14.4232 88.5269 13.58 86.9593 13.58C85.1306 13.58 83.9549 14.5529 83.5631 16.1746H90.225Z" fill="#16103E"/>
<path d="M105.77 10.9204H109.036V23.2447C109.036 25.2555 108.382 26.7474 107.011 27.8501C105.705 28.8879 104.072 29.4068 102.178 29.4068C99.3692 29.4068 97.1485 28.3041 95.9729 26.2285L98.8467 24.6068C99.4998 25.8393 100.675 26.4231 102.243 26.4231C104.333 26.4231 105.639 25.2555 105.639 23.2447V21.8177C104.66 23.115 103.288 23.7636 101.459 23.7636C99.6304 23.7636 98.0629 23.115 96.8219 21.8177C95.581 20.5204 94.9932 18.9636 94.9932 17.0825C94.9932 15.2014 95.6463 13.7096 96.8873 12.4123C98.1282 11.115 99.6957 10.4663 101.525 10.4663C103.353 10.4663 104.725 11.115 105.705 12.4123V10.9204H105.77ZM104.66 14.6825C104.006 14.0339 103.092 13.6447 102.047 13.6447C101.002 13.6447 100.088 13.969 99.4345 14.6825C98.7813 15.3312 98.3895 16.1744 98.3895 17.2123C98.3895 19.2879 99.957 20.7798 102.047 20.7798C104.137 20.7798 105.705 19.2879 105.705 17.2123C105.77 16.1744 105.378 15.3312 104.66 14.6825Z" fill="#16103E"/>
<path d="M115.371 13.1907C116.024 11.5042 117.592 10.7258 119.355 10.7258V14.488C118.31 14.3583 117.396 14.5529 116.612 15.1366C115.828 15.6556 115.436 16.5637 115.436 17.7961V24.0231H112.04V11.0502H115.436V13.1907H115.371Z" fill="#16103E"/>
<path d="M130.981 10.9204H134.377V23.8934H130.981V22.3367C129.936 23.634 128.565 24.2177 126.736 24.2177C124.972 24.2177 123.47 23.5691 122.229 22.2718C120.988 20.9745 120.4 19.288 120.4 17.4069C120.4 15.461 121.054 13.9042 122.229 12.5421C123.47 11.2448 124.972 10.5312 126.736 10.5312C128.565 10.5312 130.001 11.1799 130.981 12.4123V10.9204ZM127.324 21.1042C128.369 21.1042 129.218 20.7799 129.936 20.0664C130.655 19.3529 130.981 18.5096 130.981 17.4069C130.981 16.3691 130.655 15.461 129.936 14.8123C129.283 14.0988 128.369 13.7745 127.324 13.7745C126.279 13.7745 125.43 14.0988 124.711 14.8123C124.058 15.461 123.666 16.3691 123.666 17.4069C123.666 18.4448 123.993 19.3529 124.711 20.0664C125.43 20.715 126.279 21.1042 127.324 21.1042Z" fill="#16103E"/>
<path d="M144.762 14.1638H141.823V19.5475C141.823 20.9746 142.868 20.9746 144.762 20.8448V23.8935C140.125 24.4124 138.427 23.1151 138.427 19.5475V14.1638H136.141V10.9205H138.427V8.32592L141.823 7.28809V10.9205H144.762V14.1638Z" fill="#16103E"/>
<path d="M153.122 24.2827C151.162 24.2827 149.529 23.634 148.223 22.3367C146.917 21.0394 146.264 19.3529 146.264 17.4719C146.264 15.5259 146.917 13.9692 148.223 12.607C149.529 11.3097 151.227 10.5962 153.122 10.5962C155.081 10.5962 156.714 11.2448 158.02 12.607C159.326 13.9043 160.045 15.5259 160.045 17.4719C160.045 19.4178 159.392 21.0394 158.02 22.3367C156.648 23.634 155.016 24.2827 153.122 24.2827ZM153.122 20.9746C154.167 20.9746 154.95 20.6502 155.669 19.9367C156.387 19.2232 156.714 18.38 156.714 17.3421C156.714 16.3043 156.387 15.4611 155.669 14.7475C155.016 14.0989 154.167 13.7097 153.122 13.7097C152.077 13.7097 151.293 14.034 150.574 14.7475C149.921 15.3962 149.595 16.3043 149.595 17.3421C149.595 18.38 149.921 19.2232 150.574 19.9367C151.227 20.6502 152.077 20.9746 153.122 20.9746Z" fill="#16103E"/>
<path d="M165.597 13.1907C166.25 11.5042 167.817 10.7258 169.581 10.7258V14.488C168.536 14.3583 167.621 14.5529 166.838 15.1366C166.054 15.6556 165.662 16.5637 165.662 17.7961V24.0231H162.266V11.0502H165.662V13.1907H165.597Z" fill="#16103E"/>
<path d="M25.6302 5.08259C25.6302 5.14746 25.6302 5.21232 25.6302 5.34205C25.6302 5.34205 25.6302 5.34205 25.6302 5.40692C25.5649 6.18529 25.4996 7.02854 25.3689 7.80691C25.2383 8.58529 24.3892 9.10421 23.6708 8.77989C22.038 8.1961 20.2745 7.74205 18.5763 7.41773C15.2454 6.83394 11.8491 6.70421 8.45277 7.22313C8.32214 7.22313 8.1262 7.288 7.99558 7.288C6.88525 7.48259 5.77492 7.67719 4.72991 7.93665C3.61958 8.26097 3.2277 9.10421 3.16239 9.94745C3.16239 10.9853 3.61958 11.9583 4.40334 12.542L4.46865 12.6069C4.14209 12.3475 3.75021 12.088 3.35833 11.7637C1.46424 10.1421 0.223284 7.87178 0.0273438 5.40692C0.0273438 5.40692 0.0273438 5.14746 0.0273438 5.08259C0.0273438 3.72043 0.876417 2.488 2.05206 1.96908C2.11737 1.96908 2.18269 1.90421 2.248 1.90421H2.31331C7.93026 -0.0417335 13.8085 -0.366058 19.3601 0.801509C20.6664 1.06097 21.9073 1.45016 23.1483 1.83935C23.2789 1.90421 23.4095 1.90421 23.5402 1.96908C24.7811 2.488 25.6302 3.65556 25.6302 5.08259Z" fill="url(#paint0_linear_1_590)"/>
<path d="M15.9644 13.5151C15.9644 14.0989 15.8338 14.6178 15.5725 15.0719C15.5725 15.0719 15.5725 15.1367 15.5072 15.1367C15.1153 15.9151 14.6581 16.6935 14.1356 17.407C13.6131 17.2124 13.0253 17.0827 12.5028 16.8881C11.719 16.6286 11.0006 16.3043 10.2168 15.98C8.25741 15.0719 6.29801 14.034 4.53455 12.7367C4.46924 12.6719 4.40392 12.6719 4.40392 12.607L4.33861 12.5421C3.55485 11.8935 3.09766 10.9854 3.09766 9.94754C3.16297 9.1043 3.55485 8.26106 4.66518 7.93674C5.71019 7.67728 6.82052 7.41782 7.93085 7.28809C8.38804 7.61241 8.84524 7.93673 9.36774 8.19619C10.674 8.97457 12.0456 9.68809 13.4825 10.3367C13.6784 10.4016 13.9397 10.5313 14.1356 10.5962C15.2459 11.1151 15.9644 12.2178 15.9644 13.5151Z" fill="#981B1E"/>
<path d="M22.6911 15.5258C22.6257 18.2502 16.9435 25.2556 14.4616 26.8123C13.4819 27.3312 12.2409 27.3961 11.2612 26.8772C10.4121 26.3583 9.759 25.7096 9.10587 24.9961C8.58336 24.4772 8.64867 23.6988 9.17118 23.1799C10.0856 22.3367 10.9346 21.4934 11.7184 20.5853C13.1553 18.8988 14.4616 17.0826 15.5066 15.1367C16.4863 13.5799 15.7678 11.3096 14.135 10.5312C15.1147 10.9204 16.1597 11.2448 17.1394 11.5691C19.6213 12.2826 22.6257 12.2826 22.6911 15.5258Z" fill="url(#paint1_linear_1_590)"/>
</g>
<defs>
<linearGradient id="paint0_linear_1_590" x1="15.8715" y1="12.2891" x2="-5.91997" y2="-36.8337" gradientUnits="userSpaceOnUse">
<stop stop-color="#EA1D25"/>
<stop offset="1" stop-color="#981B1E"/>
</linearGradient>
<linearGradient id="paint1_linear_1_590" x1="17.4826" y1="15.4665" x2="10.0265" y2="35.092" gradientUnits="userSpaceOnUse">
<stop stop-color="#EA1D25"/>
<stop offset="1" stop-color="#981B1E"/>
</linearGradient>
<clipPath id="clip0_1_590">
<rect width="170" height="30" fill="white"/>
</clipPath>
</defs>
</svg>
