<svg width="30" height="30" viewBox="0 0 30 30" fill="none" xmlns="http://www.w3.org/2000/svg">
<circle cx="15" cy="15" r="15" fill="#16103E" fill-opacity="0.06"/>
<path d="M20.3281 12.3346L14.9948 15.668L9.66146 12.3346V11.0013L14.9948 14.3346L20.3281 11.0013V12.3346ZM20.3281 9.66797H9.66146C8.92146 9.66797 8.32812 10.2613 8.32812 11.0013V19.0013C8.32812 19.3549 8.4686 19.6941 8.71865 19.9441C8.9687 20.1942 9.30784 20.3346 9.66146 20.3346H20.3281C20.6817 20.3346 21.0209 20.1942 21.2709 19.9441C21.521 19.6941 21.6615 19.3549 21.6615 19.0013V11.0013C21.6615 10.6477 21.521 10.3085 21.2709 10.0585C21.0209 9.80844 20.6817 9.66797 20.3281 9.66797Z" fill="#70747E"/>
</svg>
