<svg width="80" height="31" viewBox="0 0 80 31" fill="none" xmlns="http://www.w3.org/2000/svg">
<g opacity="0.5" clip-path="url(#clip0_1_1268)">
<path d="M16.2162 5.21901V14.9085L11.0719 0.89354C10.4616 -0.663789 11.8568 0.287859 11.8568 0.287859L14.8213 2.53725C16.2162 3.57529 16.2162 5.21901 16.2162 5.21901ZM11.0719 28.8373L16.2162 14.9087L1.65502 19.8398C-0.00162107 20.359 1.04471 19.0611 1.04471 19.0611L3.31166 16.2928C4.35799 14.9951 6.10184 14.9951 6.10184 14.9951C6.10184 14.9951 4.35799 14.9951 3.31166 13.6973L1.04471 10.929C1.04471 10.929 -0.00162107 9.63128 1.65502 10.1503L16.2162 15.0817V24.7711C16.2162 24.7711 16.2162 26.4148 14.8212 27.453L11.8566 29.4428C11.8568 29.4428 10.4616 30.3945 11.0719 28.8373Z" fill="#16103E"/>
<path d="M74.2877 15.7744V18.716C73.9389 18.9755 73.0669 19.3215 71.9334 19.3215C70.7126 19.3215 69.9279 18.8024 69.9279 17.6778C69.9279 16.9857 70.1896 16.5531 70.6254 16.2935C71.0613 16.0339 71.7588 15.8609 72.5437 15.8609L74.2877 15.7744ZM75.5083 22.955H79.7807C79.5191 22.0898 79.5191 20.7922 79.5191 19.8405V12.66C79.5191 8.76686 77.4264 6.5176 72.4564 6.5176C69.9278 6.5176 67.7479 7.12314 65.8297 8.07479L67.3991 11.2757C68.5326 10.6702 70.1021 10.3241 71.4972 10.3241C73.2411 10.3241 74.3748 10.9296 74.3748 12.4004V12.5733L71.8461 12.6598C70.1894 12.7464 68.7072 13.0059 67.5736 13.6115C65.917 14.4766 64.8707 15.7742 64.8707 18.0238C64.8707 21.1381 67.225 23.301 70.364 23.301C72.3694 23.301 73.7645 22.5223 74.898 21.5708L75.5083 22.955ZM55.1922 15.1688C53.6227 15.1688 52.9252 13.9577 52.9252 12.7465C52.9252 11.0163 53.8844 10.2375 55.105 10.2375C56.6745 10.2375 57.4593 11.5353 57.4593 12.7465C57.4593 14.3037 56.5001 15.1688 55.1922 15.1688ZM55.541 27.5402C53.0124 27.5402 51.5301 26.5886 51.5301 25.291C51.5301 24.5989 51.8789 24.0797 52.2276 23.8202C53.8842 24.6853 59.0287 24.1663 59.0287 26.0694C59.0287 27.0211 57.372 27.5402 55.541 27.5402ZM54.8435 31.0007C61.0343 31.0007 63.9117 28.4053 63.9117 25.5504C63.9117 19.5809 53.2741 22.1763 53.2741 19.4079C53.2741 19.235 53.2741 19.0618 53.4483 18.716C53.8844 18.8889 54.5819 18.8889 55.2795 18.8889C59.3775 18.8889 62.3422 16.553 62.3422 12.8329C62.3422 11.5351 61.9062 10.2375 61.2087 9.28588C61.4703 9.19935 61.9936 9.11297 62.1678 9.11297C62.6039 9.11297 63.127 9.19935 63.563 9.28588L64.5221 5.73887C64.2605 5.73887 63.7373 5.65234 63.3886 5.65234C61.0344 5.65234 59.9881 6.25789 59.1162 7.03662C58.9419 7.20953 58.8546 7.20953 58.6801 7.12315C57.9828 6.69052 56.7619 6.34441 55.2797 6.34441C50.3096 6.34441 48.3041 9.54532 48.3041 12.4004C48.3041 14.4766 49.2633 16.4664 51.1815 17.4181C49.8736 18.1101 49.0018 19.235 49.0018 20.3597C49.0018 21.1383 49.3506 21.9169 50.048 22.3494C48.5658 22.8685 47.1706 24.1663 47.1706 26.0694C46.996 28.9245 49.6992 31.0007 54.8435 31.0007ZM19.6173 22.955H24.7618V11.9678C25.7209 11.2757 26.8543 10.9296 27.9007 10.9296C29.8189 10.9296 29.9933 12.3139 29.9933 13.8711V22.955H35.1377V12.3139V11.9678C36.0969 11.2757 37.2303 10.9296 38.1895 10.9296C40.1077 10.9296 40.3693 12.2274 40.3693 13.7847V22.955H45.5137V12.4868C45.5137 7.98813 42.7236 6.51746 39.759 6.51746C38.1024 6.51746 36.0097 7.20939 34.0915 8.76672C33.2194 7.38244 31.7372 6.51746 29.6445 6.51746C27.7263 6.51746 25.8952 7.46911 24.3258 8.59367L23.9769 6.94996H19.6172V22.955H19.6173Z" fill="#16103E"/>
</g>
<defs>
<clipPath id="clip0_1_1268">
<rect width="80" height="31" fill="white"/>
</clipPath>
</defs>
</svg>
