<svg width="30" height="30" viewBox="0 0 30 30" fill="none" xmlns="http://www.w3.org/2000/svg">
<circle cx="15" cy="15" r="15" fill="#16103E" fill-opacity="0.06"/>
<path d="M11.4133 14.1933C12.3733 16.08 13.92 17.6267 15.8067 18.5867L17.2733 17.12C17.46 16.9333 17.72 16.88 17.9533 16.9533C18.7 17.2 19.5 17.3333 20.3333 17.3333C20.5101 17.3333 20.6797 17.4036 20.8047 17.5286C20.9298 17.6536 21 17.8232 21 18V20.3333C21 20.5101 20.9298 20.6797 20.8047 20.8047C20.6797 20.9298 20.5101 21 20.3333 21C17.3275 21 14.4449 19.806 12.3195 17.6805C10.194 15.5551 9 12.6725 9 9.66667C9 9.48986 9.07024 9.32029 9.19526 9.19526C9.32029 9.07024 9.48986 9 9.66667 9H12C12.1768 9 12.3464 9.07024 12.4714 9.19526C12.5964 9.32029 12.6667 9.48986 12.6667 9.66667C12.6667 10.5 12.8 11.3 13.0467 12.0467C13.12 12.28 13.0667 12.54 12.88 12.7267L11.4133 14.1933Z" fill="#70747E"/>
</svg>
