<svg width="20" height="20" viewBox="0 0 20 20" fill="none" xmlns="http://www.w3.org/2000/svg">
<g clip-path="url(#clip0_12_6364)">
<rect x="-3" y="0.318359" width="27.8" height="19.8571" fill="#FF2936"/>
<path fill-rule="evenodd" clip-rule="evenodd" d="M-3 20.1755H7.59048V0.318359H-3V20.1755Z" fill="#128415"/>
<path d="M7.58903 13.5563C9.41683 13.5563 10.8985 12.0745 10.8985 10.2467C10.8985 8.41894 9.41683 6.93722 7.58903 6.93722C5.76123 6.93722 4.2795 8.41894 4.2795 10.2467C4.2795 12.0745 5.76123 13.5563 7.58903 13.5563Z" stroke="#FAF94F" stroke-width="1.32381"/>
<path fill-rule="evenodd" clip-rule="evenodd" d="M6.26562 8.59218C6.26562 8.4094 6.4138 8.26123 6.59658 8.26123H8.58229C8.76507 8.26123 8.91324 8.4094 8.91324 8.59218V10.9088C8.91324 11.64 8.32055 12.2327 7.58943 12.2327C6.85831 12.2327 6.26562 11.64 6.26562 10.9088V8.59218Z" fill="white"/>
<path fill-rule="evenodd" clip-rule="evenodd" d="M7.59159 10.9086C7.95715 10.9086 8.2535 9.95032 8.2535 9.58476C8.2535 9.2192 7.95715 8.92285 7.59159 8.92285C7.22603 8.92285 6.92969 9.2192 6.92969 9.58476C6.92969 9.95032 7.22603 10.9086 7.59159 10.9086Z" fill="#1D50B5"/>
</g>
<rect x="0.75" y="1.06836" width="18.5" height="18.5" rx="9.25" stroke="#F3F3F3" stroke-width="0.5"/>
<defs>
<clipPath id="clip0_12_6364">
<rect x="1" y="1.31836" width="18" height="18" rx="9" fill="white"/>
</clipPath>
</defs>
</svg>
