<svg width="18" height="18" viewBox="0 0 18 18" fill="none" xmlns="http://www.w3.org/2000/svg">
<path d="M9 18C7.75263 18 6.58042 17.7632 5.48337 17.2895C4.38568 16.8158 3.43421 16.1763 2.62895 15.3711C1.82368 14.5658 1.18421 13.6143 0.710526 12.5166C0.236842 11.4196 0 10.2474 0 9C0 7.75263 0.236842 6.58011 0.710526 5.48242C1.18421 4.38537 1.82368 3.43421 2.62895 2.62895C3.43421 1.82368 4.38568 1.18421 5.48337 0.710526C6.58042 0.236842 7.75263 0 9 0C10.2474 0 11.4199 0.236842 12.5176 0.710526C13.6146 1.18421 14.5658 1.82368 15.3711 2.62895C16.1763 3.43421 16.8158 4.38537 17.2895 5.48242C17.7632 6.58011 18 7.75263 18 9C18 10.2474 17.7632 11.4196 17.2895 12.5166C16.8158 13.6143 16.1763 14.5658 15.3711 15.3711C14.5658 16.1763 13.6146 16.8158 12.5176 17.2895C11.4199 17.7632 10.2474 18 9 18ZM8.05263 16.5316V14.6842C7.53158 14.6842 7.08568 14.4988 6.71495 14.1281C6.34358 13.7567 6.1579 13.3105 6.1579 12.7895V11.8421L1.61053 7.29474C1.56316 7.57895 1.51958 7.86316 1.47979 8.14737C1.44063 8.43158 1.42105 8.71579 1.42105 9C1.42105 10.9105 2.04884 12.5842 3.30442 14.0211C4.55937 15.4579 6.14211 16.2947 8.05263 16.5316ZM14.5895 14.1158C14.9053 13.7684 15.1895 13.3933 15.4421 12.9903C15.6947 12.588 15.9041 12.1696 16.0702 11.7351C16.2357 11.3012 16.362 10.8553 16.4492 10.3974C16.5357 9.93947 16.5789 9.47368 16.5789 9C16.5789 7.45263 16.1488 6.03537 15.2886 4.74821C14.4278 3.46168 13.2789 2.53421 11.8421 1.96579V2.36842C11.8421 2.88947 11.6567 3.33537 11.286 3.70611C10.9146 4.07747 10.4684 4.26316 9.94737 4.26316H8.05263V6.1579C8.05263 6.42632 7.962 6.65116 7.78074 6.83242C7.59884 7.01432 7.37368 7.10526 7.10526 7.10526H5.21053V9H10.8947C11.1632 9 11.3883 9.09063 11.5702 9.27189C11.7515 9.45379 11.8421 9.67895 11.8421 9.94737V12.7895H12.7895C13.2 12.7895 13.5711 12.9117 13.9026 13.1561C14.2342 13.4012 14.4632 13.7211 14.5895 14.1158Z" fill="#16103E"/>
</svg>
