<svg width="20" height="20" viewBox="0 0 20 20" fill="none" xmlns="http://www.w3.org/2000/svg">
<g opacity="0.5">
<path d="M8.91667 3.5C10.3533 3.5 11.731 4.07068 12.7468 5.0865C13.7627 6.10233 14.3333 7.48008 14.3333 8.91667C14.3333 10.2583 13.8417 11.4917 13.0333 12.4417L13.2583 12.6667H13.9167L16.4583 15.2083C16.8035 15.5535 16.8035 16.1132 16.4583 16.4583C16.1132 16.8035 15.5535 16.8035 15.2083 16.4583L12.6667 13.9167V13.2583L12.4417 13.0333C11.4588 13.8723 10.2089 14.3333 8.91667 14.3333C7.48008 14.3333 6.10233 13.7627 5.08651 12.7468C4.07068 11.731 3.5 10.3533 3.5 8.91667C3.5 7.48008 4.07068 6.10233 5.08651 5.0865C6.10233 4.07068 7.48008 3.5 8.91667 3.5ZM8.91667 5.16667C6.83333 5.16667 5.16667 6.83333 5.16667 8.91667C5.16667 11 6.83333 12.6667 8.91667 12.6667C11 12.6667 12.6667 11 12.6667 8.91667C12.6667 6.83333 11 5.16667 8.91667 5.16667Z" fill="#16103E"/>
</g>
</svg>
