<svg width="65" height="29" viewBox="0 0 65 29" fill="none" xmlns="http://www.w3.org/2000/svg">
<g opacity="0.5" clip-path="url(#clip0_1_1274)">
<path d="M0.03125 28.9556H65.4863V24.8086H0.03125V28.9556Z" fill="#16103E"/>
<path d="M60.0125 14.741C60.0125 14.248 59.5214 13.0228 57.9831 11.9788C56.5097 10.9783 54.0542 10.0938 50.1036 10.0938H50.0964C46.4564 10.0938 44.0008 10.8913 42.4625 11.841C40.8447 12.8415 40.1875 14.0523 40.1875 14.741C40.1875 15.292 40.4042 15.785 40.4042 15.7923L40.5342 16.0968L40.8519 15.988C40.8519 15.988 42.3108 15.4805 44.6292 15.4805C47.1208 15.4805 49.5403 15.843 51.7069 16.3505C53.8736 16.8653 55.7803 17.5105 57.2392 18.0833L57.3836 18.1413L57.5281 18.0687C57.5425 18.0687 60.0125 16.8218 60.0125 14.741ZM59.2903 14.741C59.2903 16.1258 57.8097 17.09 57.3403 17.351C55.5556 16.6625 53.7266 16.0957 51.8658 15.6545C49.4953 15.0819 47.0673 14.7827 44.6292 14.7628C42.8669 14.7628 41.5525 15.0528 40.9603 15.205C40.9314 15.0745 40.9025 14.915 40.9025 14.741C40.9025 14.2335 41.4586 13.3055 42.8308 12.4573C44.2825 11.5583 46.6081 10.8043 50.0964 10.8043C53.8881 10.8043 56.2064 11.638 57.5786 12.5733C58.8786 13.4578 59.2975 14.3858 59.2975 14.7483L59.2903 14.741Z" fill="#16103E"/>
<path d="M65.084 19.06C64.2947 19.1056 63.5027 19.0642 62.7224 18.9367C63.7407 18.2552 65.2501 16.885 65.2501 14.739C65.2501 13.231 63.9501 11.4475 61.3501 10.07C58.844 8.736 55.0957 7.75 50.1051 7.75C46.3279 7.75 42.5796 8.4605 39.7774 9.664C36.8885 10.8965 34.9674 12.6655 34.9674 14.739C34.9512 15.7356 35.3008 16.7032 35.9496 17.4578C33.7107 19.0673 32.8585 21.1842 32.8513 21.1915L32.6562 21.6845H37.2279L37.2496 21.3437C37.295 20.9654 37.4171 20.6004 37.6084 20.2712C37.7997 19.942 38.0561 19.6557 38.3618 19.4297C38.5279 19.553 38.7301 19.669 38.9613 19.7922C39.3007 19.959 39.7051 20.133 40.1601 20.2998C42.4857 21.1698 46.299 21.9672 50.1051 21.9672C54.6118 21.9672 57.4718 21.1407 58.0857 20.945C58.6346 21.1335 60.9746 21.873 65.1274 21.873H65.4885V19.0165L65.084 19.06ZM64.7663 21.1553C60.3679 21.1045 58.2301 20.2345 58.2229 20.2273L58.1001 20.1765L57.9774 20.22C57.9701 20.22 55.0885 21.2495 50.1051 21.2495C46.808 21.2468 43.5337 20.7006 40.4129 19.6328C40.0285 19.4923 39.6524 19.3301 39.2863 19.147C39.0423 19.0278 38.8122 18.8819 38.6001 18.712L38.3979 18.538L38.174 18.683C38.174 18.683 36.8451 19.5095 36.5779 20.9667H33.7612C34.1585 20.2417 35.0613 18.8715 36.7079 17.8058L37.1268 17.5375L36.7296 17.2257C36.7296 17.2257 35.6824 16.4283 35.6824 14.739C35.6824 12.999 37.4229 11.4475 40.059 10.3165C42.7746 9.1565 46.4218 8.46775 50.1051 8.46775C54.9657 8.46775 58.5985 9.41025 61.0179 10.7007C63.3579 11.9477 64.5351 13.4848 64.5351 14.739C64.5351 17.5085 61.5235 18.799 61.5163 18.799L60.4546 19.263L61.5885 19.4805C61.5957 19.4805 63.459 19.843 64.7663 19.7995V21.1553Z" fill="#16103E"/>
<path d="M54.0133 18.6172C53.9989 18.61 50.5611 16.9062 44.6316 16.9062C43.6566 16.9062 42.3061 17.102 42.3061 17.102L41.3672 17.2325L42.1544 17.7617C42.1616 17.7617 44.9494 19.683 50.0989 19.683C51.6516 19.683 53.9122 19.2915 53.9122 19.2915L55.0172 19.103L54.0133 18.6172ZM50.0989 18.958C46.9211 18.958 44.7111 18.2185 43.5411 17.682C43.9022 17.653 44.2922 17.624 44.6316 17.624C48.3294 17.624 51.0089 18.2982 52.4533 18.784C51.7311 18.871 50.8283 18.958 50.0989 18.958Z" fill="#16103E"/>
<path d="M0.03125 4.53928H65.4863V0.363281H0.03125V4.53928Z" fill="#16103E"/>
<path d="M30.5073 8.12109H25.1484V21.6931H30.7745V8.12834L30.5073 8.12109Z" fill="#16103E"/>
<path d="M18.7417 14.2311C18.1494 14.0643 17.4922 13.9193 16.7556 13.7961C15.9341 13.6565 15.1078 13.5477 14.2783 13.4698C8.16833 12.9478 8.22611 12.1721 8.24778 11.8603V11.7733C8.255 11.5123 8.65222 11.2513 9.19389 11.0483C9.91313 10.7851 10.6746 10.6573 11.44 10.6713C12.4656 10.7003 13.9028 10.9613 14.625 11.3963C14.7478 11.4688 14.8417 11.5486 14.9139 11.6283C14.9572 11.6791 14.9861 11.7298 14.9861 11.7733V12.0561H22.1L22.0783 11.7661C22.0061 10.6061 20.345 9.02559 16.6328 8.25709C15.925 8.11209 15.145 7.99609 14.2856 7.91634C13.3491 7.8315 12.4092 7.79037 11.4689 7.7931H11.4472C9.33111 7.7931 6.825 8.17735 4.85333 8.84435C2.795 9.5331 1.29278 10.5481 1.29278 11.7806C1.29278 12.8028 2.22444 14.3036 5.55389 15.1881C6.18222 15.3476 6.89 15.4926 7.70611 15.6086C8.50778 15.7246 9.41778 15.8188 10.4289 15.8696C10.9561 15.8986 11.2956 15.9421 11.5267 15.9783C11.7413 15.9994 11.9555 16.0236 12.1694 16.0508C13.6428 16.2248 14.6539 16.5148 15.2822 16.8556C15.8311 17.1601 16.055 17.4718 16.0261 17.7546V17.7618C15.9756 18.2403 15.5206 18.7188 14.1339 18.9726C13.845 19.0306 13.52 19.0668 13.1444 19.1031C12.7617 19.1321 12.35 19.1466 11.8878 19.1466H11.8733C9.54778 19.1466 8.19 18.8493 7.56889 18.3491C7.46987 18.2721 7.38443 18.179 7.31611 18.0736C7.25942 17.9853 7.22019 17.8868 7.20056 17.7836L7.15722 17.5661H0L0.00722239 17.8561C0.0433335 19.1176 1.885 20.7778 5.89333 21.5753C6.65167 21.7276 7.48944 21.8508 8.42111 21.9378C9.34556 22.0248 10.3494 22.0683 11.44 22.0756H11.4978C15.2244 22.0756 18.0411 21.4956 19.9261 20.6763C21.8978 19.8208 22.8872 18.6898 22.8872 17.6531C22.8872 16.4061 21.8544 15.0938 18.7417 14.2311Z" fill="#16103E"/>
</g>
<defs>
<clipPath id="clip0_1_1274">
<rect width="65" height="29" fill="white"/>
</clipPath>
</defs>
</svg>
