<svg width="30" height="30" viewBox="0 0 30 30" fill="none" xmlns="http://www.w3.org/2000/svg">
<circle cx="15" cy="15" r="15" fill="#16103E" fill-opacity="0.06"/>
<path d="M19 11C20.38 12.36 20.9 14.26 20.5733 16.0333C20.8467 16.5133 21 17.0733 21 17.6667C21 18.5507 20.6488 19.3986 20.0237 20.0237C19.3986 20.6488 18.5507 21 17.6667 21C17.0733 21 16.5133 20.8467 16.0333 20.5733C14.26 20.9 12.36 20.38 11 19C9.62 17.64 9.1 15.74 9.42667 13.9667C9.15333 13.4867 9 12.9267 9 12.3333C9 11.4493 9.35119 10.6014 9.97631 9.97631C10.6014 9.35119 11.4493 9 12.3333 9C12.9267 9 13.4867 9.15333 13.9667 9.42667C15.74 9.1 17.64 9.62 19 11ZM15.0267 18.44C16.94 18.44 17.8933 17.52 17.8933 16.28C17.8933 15.4867 17.52 14.64 16.0733 14.3133L14.7467 14.02C14.24 13.9067 13.6667 13.7533 13.6667 13.28C13.6667 12.8 14.0667 12.4667 14.8 12.4667C16.2867 12.4667 16.1467 13.4867 16.8867 13.4867C17.2733 13.4867 17.6067 13.26 17.6067 12.8667C17.6067 11.9533 16.1467 11.2667 14.9067 11.2667C13.5667 11.2667 12.1333 11.84 12.1333 13.36C12.1333 14.0933 12.3933 14.8733 13.8333 15.2333L15.6267 15.6867C16.1667 15.82 16.3 16.12 16.3 16.4C16.3 16.8533 15.8467 17.3 15.0267 17.3C13.42 17.3 13.64 16.0667 12.78 16.0667C12.3933 16.0667 12.1133 16.3333 12.1133 16.7133C12.1133 17.4533 13 18.44 15.0267 18.44Z" fill="#70747E"/>
</svg>
