<svg width="20" height="20" viewBox="0 0 20 20" fill="none" xmlns="http://www.w3.org/2000/svg">
<g clip-path="url(#clip0_12_6291)">
<mask id="mask0_12_6291" style="mask-type:luminance" maskUnits="userSpaceOnUse" x="1" y="0" width="18" height="19">
<rect x="1.225" y="1.11123" width="17.55" height="17.55" rx="1.57499" fill="white" stroke="white" stroke-width="0.449997"/>
</mask>
<g mask="url(#mask0_12_6291)">
<path fill-rule="evenodd" clip-rule="evenodd" d="M1 12.8862H26.1998V6.88623H1V12.8862Z" fill="#17508F"/>
<path fill-rule="evenodd" clip-rule="evenodd" d="M1 6.88619H26.1998V0.88623H1V6.88619Z" fill="#E1444D"/>
<path fill-rule="evenodd" clip-rule="evenodd" d="M6.40234 9.28611C6.40234 8.70557 6.71164 7.41219 6.88609 6.72884C6.95297 6.4669 7.1898 6.28613 7.46014 6.28613H10.1456C10.4154 6.28613 10.6519 6.46617 10.7191 6.72752C10.8936 7.40688 11.2023 8.6923 11.2023 9.28611C11.2023 9.95659 10.752 11.7168 10.6316 12.1755C10.6123 12.2493 10.5794 12.317 10.5308 12.3758C10.3008 12.6544 9.55159 13.4861 8.80233 13.4861C8.05261 13.4861 7.30288 12.6534 7.07342 12.3753C7.02516 12.3168 6.99238 12.2495 6.97298 12.1762C6.8525 11.7208 6.40234 9.97321 6.40234 9.28611Z" fill="white"/>
<mask id="mask1_12_6291" style="mask-type:luminance" maskUnits="userSpaceOnUse" x="6" y="6" width="6" height="8">
<path fill-rule="evenodd" clip-rule="evenodd" d="M6.40234 9.28611C6.40234 8.70557 6.71164 7.41219 6.88609 6.72884C6.95297 6.4669 7.1898 6.28613 7.46014 6.28613H10.1456C10.4154 6.28613 10.6519 6.46617 10.7191 6.72752C10.8936 7.40688 11.2023 8.6923 11.2023 9.28611C11.2023 9.95659 10.752 11.7168 10.6316 12.1755C10.6123 12.2493 10.5794 12.317 10.5308 12.3758C10.3008 12.6544 9.55159 13.4861 8.80233 13.4861C8.05261 13.4861 7.30288 12.6534 7.07342 12.3753C7.02516 12.3168 6.99238 12.2495 6.97298 12.1762C6.8525 11.7208 6.40234 9.97321 6.40234 9.28611Z" fill="white"/>
</mask>
<g mask="url(#mask1_12_6291)">
<path d="M11.2007 6.88613L6.40078 12.8861" stroke="#E1444D" stroke-width="1.19999" stroke-linecap="square"/>
<path d="M6.40081 6.88613L11.2008 12.8861" stroke="#E1444D" stroke-width="1.19999" stroke-linecap="square"/>
</g>
</g>
</g>
<rect x="0.75" y="0.63623" width="18.5" height="18.5" rx="9.25" stroke="#F3F3F3" stroke-width="0.5"/>
<defs>
<clipPath id="clip0_12_6291">
<rect x="1" y="0.88623" width="18" height="18" rx="9" fill="white"/>
</clipPath>
</defs>
</svg>
