<svg width="20" height="20" viewBox="0 0 20 20" fill="none" xmlns="http://www.w3.org/2000/svg">
<mask id="mask0_1_584" style="mask-type:alpha" maskUnits="userSpaceOnUse" x="0" y="0" width="20" height="20">
<rect width="20" height="20" fill="#D9D9D9"/>
</mask>
<g mask="url(#mask0_1_584)">
<path d="M7.83299 17.083C7.40299 17.083 7.03166 16.927 6.71899 16.615C6.40633 16.3023 6.24999 15.9307 6.24999 15.5V7.83299C6.24999 7.40299 6.40633 7.03166 6.71899 6.71899C7.03166 6.40633 7.40299 6.24999 7.83299 6.24999H15.5C15.9307 6.24999 16.3023 6.40633 16.615 6.71899C16.927 7.03166 17.083 7.40299 17.083 7.83299V15.5C17.083 15.9307 16.927 16.3023 16.615 16.615C16.3023 16.927 15.9307 17.083 15.5 17.083H7.83299ZM8.49999 9.39599H14.833C15.083 9.39599 15.2983 9.30566 15.479 9.12499C15.6597 8.94433 15.75 8.73599 15.75 8.49999C15.75 8.24999 15.6597 8.03466 15.479 7.85399C15.2983 7.67333 15.083 7.58299 14.833 7.58299H8.49999C8.24999 7.58299 8.03466 7.67333 7.85399 7.85399C7.67333 8.03466 7.58299 8.24999 7.58299 8.49999C7.58299 8.73599 7.67333 8.94433 7.85399 9.12499C8.03466 9.30566 8.24999 9.39599 8.49999 9.39599ZM10.729 12.604H12.604V10.729H10.729V12.604ZM10.729 15.75H12.604V13.938H10.729V15.75ZM7.58299 12.604H9.39599V10.729H7.58299V12.604ZM13.938 12.604H15.75V10.729H13.938V12.604ZM7.83299 15.75H9.39599V13.938H7.58299V15.5C7.58299 15.5693 7.60733 15.6283 7.65599 15.677C7.70466 15.7257 7.76366 15.75 7.83299 15.75ZM13.938 15.75H15.5C15.5693 15.75 15.6283 15.7257 15.677 15.677C15.7257 15.6283 15.75 15.5693 15.75 15.5V13.938H13.938V15.75ZM4.49999 13.75C4.06933 13.75 3.69766 13.5937 3.38499 13.281C3.07299 12.9683 2.91699 12.597 2.91699 12.167V4.49999C2.91699 4.06933 3.07299 3.69766 3.38499 3.38499C3.69766 3.07299 4.06933 2.91699 4.49999 2.91699H12.167C12.597 2.91699 12.9683 3.07299 13.281 3.38499C13.5937 3.69766 13.75 4.06933 13.75 4.49999V5.37499H12.417V4.49999C12.417 4.43066 12.3927 4.37166 12.344 4.32299C12.2953 4.27433 12.2363 4.24999 12.167 4.24999H4.49999C4.43066 4.24999 4.37166 4.27433 4.32299 4.32299C4.27433 4.37166 4.24999 4.43066 4.24999 4.49999V12.167C4.24999 12.2363 4.27433 12.2953 4.32299 12.344C4.37166 12.3927 4.43066 12.417 4.49999 12.417H5.37499V13.75H4.49999Z" fill="#16103E"/>
</g>
</svg>
