<svg width="20" height="20" viewBox="0 0 20 20" fill="none" xmlns="http://www.w3.org/2000/svg">
<g clip-path="url(#clip0_12_6356)">
<rect x="1" y="1.10205" width="18" height="18" fill="#E92434"/>
<path fill-rule="evenodd" clip-rule="evenodd" d="M12.2343 10.5454L11.4133 11.5407L11.4692 10.2517L10.2689 9.77846L11.5121 9.43331L11.5913 8.14547L12.3037 9.22121L13.553 8.89849L12.75 9.90849L13.443 10.9969L12.2343 10.5454Z" fill="white"/>
<path fill-rule="evenodd" clip-rule="evenodd" d="M11.1478 12.5021C10.4118 13.4456 9.26422 14.0523 7.97489 14.0523C5.75373 14.0523 3.95312 12.2517 3.95312 10.0306C3.95312 7.8094 5.75373 6.00879 7.97489 6.00879C9.26401 6.00879 10.4115 6.61531 11.1475 7.55855C10.5801 7.14729 9.86743 6.90242 9.09345 6.90242C7.24248 6.90242 5.74197 8.30289 5.74197 10.0305C5.74197 11.758 7.24248 13.1585 9.09345 13.1585C9.86759 13.1585 10.5804 12.9135 11.1478 12.5021Z" fill="white"/>
</g>
<rect x="0.75" y="0.852051" width="18.5" height="18.5" rx="9.25" stroke="#F3F3F3" stroke-width="0.5"/>
<defs>
<clipPath id="clip0_12_6356">
<rect x="1" y="1.10205" width="18" height="18" rx="9" fill="white"/>
</clipPath>
</defs>
</svg>
