<svg width="30" height="30" viewBox="0 0 30 30" fill="none" xmlns="http://www.w3.org/2000/svg">
<g opacity="0.5">
<path d="M28.0719 7.5C27.1094 7.9375 26.0719 8.225 24.9969 8.3625C26.0969 7.7 26.9469 6.65 27.3469 5.3875C26.3094 6.0125 25.1594 6.45 23.9469 6.7C22.9594 5.625 21.5719 5 19.9969 5C17.0594 5 14.6594 7.4 14.6594 10.3625C14.6594 10.7875 14.7094 11.2 14.7969 11.5875C10.3469 11.3625 6.38437 9.225 3.74687 5.9875C3.28437 6.775 3.02187 7.7 3.02187 8.675C3.02187 10.5375 3.95937 12.1875 5.40937 13.125C4.52187 13.125 3.69687 12.875 2.97187 12.5V12.5375C2.97187 15.1375 4.82187 17.3125 7.27187 17.8C6.48528 18.0153 5.65949 18.0452 4.85937 17.8875C5.19888 18.9531 5.8638 19.8855 6.76064 20.5537C7.65749 21.2218 8.74118 21.5921 9.85937 21.6125C7.96391 23.113 5.61437 23.9241 3.19687 23.9125C2.77187 23.9125 2.34687 23.8875 1.92188 23.8375C4.29687 25.3625 7.12187 26.25 10.1469 26.25C19.9969 26.25 25.4094 18.075 25.4094 10.9875C25.4094 10.75 25.4094 10.525 25.3969 10.2875C26.4469 9.5375 27.3469 8.5875 28.0719 7.5Z" fill="#16103E"/>
</g>
</svg>
