<svg width="24" height="20" viewBox="0 0 24 20" fill="none" xmlns="http://www.w3.org/2000/svg">
<g filter="url(#filter0_d_964_1204)">
<g clip-path="url(#clip0_964_1204)">
<rect x="2" y="2.5" width="20" height="15" rx="2" fill="white"/>
<g clip-path="url(#clip1_964_1204)">
<path d="M2 2.5V17.5H22V2.5H2Z" fill="#012169"/>
<path fill-rule="evenodd" clip-rule="evenodd" d="M9.76388 10.0001L1.55273 3.84173L2.44716 1.15845L11.9999 8.32304L21.5527 1.15845L22.4472 3.84173L14.236 10.0001L22.4472 16.1584L21.5527 18.8417L11.9999 11.6771L2.44716 18.8417L1.55273 16.1584L9.76388 10.0001Z" fill="white"/>
<path fill-rule="evenodd" clip-rule="evenodd" d="M10.5086 10.0001L1.70117 3.39457L2.29746 1.60571L11.9993 8.8821L21.7012 1.60571L22.2975 3.39457L13.49 10.0001L22.2975 16.6057L21.7012 18.3946L11.9993 11.1182L2.29746 18.3946L1.70117 16.6057L10.5086 10.0001Z" fill="#C8102E"/>
<path fill-rule="evenodd" clip-rule="evenodd" d="M13.6667 12.5V17.5H10.3333V12.5H2V7.5H10.3333V2.5H13.6667V7.5H22V12.5H13.6667Z" fill="white"/>
<path fill-rule="evenodd" clip-rule="evenodd" d="M13 11.5V17.5H11V11.5H2V8.5H11V2.5H13V8.5H22V11.5H13Z" fill="#C8102E"/>
</g>
</g>
</g>
<defs>
<filter id="filter0_d_964_1204" x="0" y="0.5" width="24" height="19" filterUnits="userSpaceOnUse" color-interpolation-filters="sRGB">
<feFlood flood-opacity="0" result="BackgroundImageFix"/>
<feColorMatrix in="SourceAlpha" type="matrix" values="0 0 0 0 0 0 0 0 0 0 0 0 0 0 0 0 0 0 127 0" result="hardAlpha"/>
<feOffset/>
<feGaussianBlur stdDeviation="1"/>
<feColorMatrix type="matrix" values="0 0 0 0 0 0 0 0 0 0 0 0 0 0 0 0 0 0 0.16 0"/>
<feBlend mode="normal" in2="BackgroundImageFix" result="effect1_dropShadow_964_1204"/>
<feBlend mode="normal" in="SourceGraphic" in2="effect1_dropShadow_964_1204" result="shape"/>
</filter>
<clipPath id="clip0_964_1204">
<rect x="2" y="2.5" width="20" height="15" rx="2" fill="white"/>
</clipPath>
<clipPath id="clip1_964_1204">
<rect width="20" height="15" fill="white" transform="translate(2 2.5)"/>
</clipPath>
</defs>
</svg>
